<svg width="648" height="402" viewBox="0 0 648 402" fill="none" xmlns="http://www.w3.org/2000/svg">
<g clip-path="url(#clip0_712_200)">
<path d="M504.653 36.692C510.735 40.7233 520.593 40.7233 526.675 36.692L533.883 31.9086C539.965 27.8773 539.965 21.331 533.883 17.2996C527.801 13.2683 517.944 13.2683 511.862 17.2996L504.653 22.083C498.571 26.1143 498.571 32.6607 504.653 36.692V36.692ZM162.349 185.482C168.431 189.513 178.288 189.513 184.359 185.482L220.797 161.294C226.879 157.262 226.879 150.716 220.797 146.685C214.715 142.653 204.858 142.653 198.787 146.685L162.349 170.873C156.267 174.904 156.267 181.45 162.349 185.482ZM17.6156 220.235C23.6976 224.267 33.5552 224.267 39.6265 220.235L46.8347 215.452C52.9166 211.42 52.9166 204.874 46.8347 200.843C40.7527 196.811 30.8951 196.811 24.8131 200.843L17.6049 205.626C11.523 209.658 11.523 216.204 17.6049 220.235H17.6156ZM643.444 3.02351C637.362 -1.00784 627.504 -1.00784 621.422 3.02351L548.675 51.301C542.593 55.3323 542.593 61.8786 548.675 65.91C554.757 69.9413 564.615 69.9413 570.697 65.91L643.444 17.6325C649.526 13.6012 649.526 7.05485 643.444 3.02351V3.02351ZM629.456 70.7427C623.375 66.7113 613.517 66.7113 607.446 70.7427L530.15 122.028C524.068 126.06 514.211 126.06 508.139 122.028C502.058 117.997 502.058 111.451 508.139 107.419L531.019 92.2308C537.101 88.1995 537.101 81.6532 531.019 77.6218C524.937 73.5905 515.08 73.5905 508.998 77.6218L400.231 149.791C394.149 153.823 384.291 153.823 378.22 149.791C372.138 145.76 372.138 139.214 378.22 135.182L486.987 63.0128C493.069 58.9815 493.069 52.4352 486.987 48.4038C480.905 44.3725 471.047 44.3725 464.965 48.4038L442.086 63.5923C436.004 67.6236 426.146 67.6236 420.075 63.5923C413.993 59.5609 404.135 59.5609 398.064 63.5923L133.505 239.147C127.423 243.178 127.423 249.724 133.505 253.756C139.587 257.787 139.587 264.333 133.505 268.365L24.738 340.534C18.6561 344.566 18.6561 351.112 24.738 355.143C30.82 359.175 30.82 365.721 24.738 369.752L4.56145 383.141C-1.52048 387.172 -1.52048 393.719 4.56145 397.75C10.6434 401.781 20.5011 401.781 26.583 397.75L91.6608 354.564C97.7428 350.533 107.6 350.533 113.672 354.564C119.754 358.595 119.754 365.142 113.672 369.173L90.792 384.361C84.71 388.393 84.71 394.939 90.792 398.97C96.8739 403.002 106.732 403.002 112.803 398.97L221.57 326.801C227.652 322.769 237.509 322.769 243.591 326.801C249.673 330.832 249.673 337.378 243.591 341.41L204.654 367.25C198.572 371.281 198.572 377.827 204.654 381.859C210.736 385.89 220.594 385.89 226.676 381.859L265.613 356.019C271.695 351.987 281.552 351.987 287.634 356.019C293.716 360.05 303.574 360.05 309.656 356.019L488.317 237.47C494.399 233.439 494.399 226.892 488.317 222.861C482.235 218.83 482.235 212.283 488.317 208.252L597.084 136.082C603.166 132.051 603.166 125.505 597.084 121.473C591.002 117.442 591.002 110.896 597.084 106.864L629.478 85.364C635.56 81.3326 635.56 74.7863 629.478 70.755L629.456 70.7427Z" fill="url(#paint0_linear_712_200)"/>
</g>
<defs>
<linearGradient id="paint0_linear_712_200" x1="324.003" y1="0" x2="324.003" y2="401.994" gradientUnits="userSpaceOnUse">
<stop stop-color="#6A6A6A"/>
<stop offset="1" stop-color="#6A6A6A"/>
</linearGradient>
<clipPath id="clip0_712_200">
<rect width="648" height="402" fill="white"/>
</clipPath>
</defs>
</svg>
