<svg width="196" height="48" viewBox="0 0 196 48" fill="none" xmlns="http://www.w3.org/2000/svg">
<path d="M55 25.7924C55 19.9139 58.0598 16 63.7401 16C67.7997 16 70.6777 17.9956 70.8746 22.652L67.3452 22.9614C67.118 20.3316 66.0123 19.2487 63.6947 19.2487C60.7409 19.2487 58.9838 21.1979 58.9838 25.5913C58.9838 29.9847 60.5591 31.903 63.422 31.903C66.0274 31.903 66.9211 30.5262 67.3452 28.577L70.8292 29.1958C70.2536 33.6201 66.6182 35.1516 63.3766 35.1516C57.363 35.1516 55.0151 31.5162 55.0151 25.7924H55Z" fill="#424143"/>
<path d="M83.6591 27.6178V16.3403H87.5066V28.1747C87.5066 33.0787 84.7346 35.1516 80.1904 35.1516C75.1917 35.1516 73.0559 32.9085 73.0559 28.0665V16.3403H76.9336V27.5405C76.9336 30.4333 77.6607 31.8566 80.3418 31.8566C83.0229 31.8566 83.644 30.6345 83.644 27.6178H83.6591Z" fill="#424143"/>
<path d="M93.9746 21.0122C93.9746 22.6675 95.7014 23.178 97.6858 23.7504C100.306 24.4929 103.396 25.4366 103.396 29.304C103.396 33.4964 100.064 35.1516 96.4588 35.1516C93.2021 35.1516 89.7787 34.0842 89.4455 29.2731L92.9446 28.7317C93.2475 30.5262 93.8989 32.0267 96.5497 32.0267C98.1553 32.0267 99.5489 31.4698 99.5489 29.7527C99.5489 28.1438 97.8524 27.6642 95.8983 27.1383C93.2475 26.4267 90.112 25.6068 90.112 21.5691C90.112 17.9647 93.0658 16 96.7163 16C99.9427 16 102.897 17.021 103.169 21.4144L99.6398 21.8167C99.4883 20.084 98.7915 19.0321 96.6557 19.0321C94.8077 19.0321 93.9595 19.821 93.9595 20.9968L93.9746 21.0122Z" fill="#424143"/>
<path d="M109.304 34.8422V19.6663H103.972V16.3403H118.468V19.6663H113.182V34.8577H109.304V34.8422Z" fill="#424143"/>
<path d="M118.695 25.6686C118.695 20.1769 121.679 16 127.526 16C133.373 16 135.842 20.1614 135.842 25.3128C135.842 31.3151 133.01 35.1516 127.133 35.1516C121.255 35.1516 118.695 31.1914 118.695 25.6686ZM131.859 25.5449C131.859 21.2752 130.238 19.326 127.451 19.326C124.527 19.326 122.664 21.2907 122.664 25.5913C122.664 29.8919 124.421 31.8256 127.269 31.8256C129.98 31.8256 131.843 30.1085 131.843 25.5449H131.859Z" fill="#424143"/>
<path d="M157.852 34.8422H154.247V20.3315H154.141L149.854 34.8577H146.37L142.235 20.3161H142.129V34.8577H138.599V16.3403H144.355L148.188 29.861H148.294L152.096 16.3403H157.821V34.8422H157.852Z" fill="#424143"/>
<path d="M165.395 34.8422H161.548V16.3403H165.395V34.8422Z" fill="#424143"/>
<path d="M172.56 31.5317H181.346V34.8577H167.925V31.9649L176.514 19.6354H168.152V16.3403H180.997V19.2796L172.56 31.5317Z" fill="#424143"/>
<path d="M187.783 31.5317H195.872V34.8577H183.936V16.3403H195.433V19.6354H187.798V23.9824H194.978V27.2001H187.798V31.5162L187.783 31.5317Z" fill="#424143"/>
<g clip-path="url(#clip0_2171_6651)">
<path d="M25.4918 37.787L27.6319 34.8326C26.7228 33.5069 26.06 32.0107 25.6812 30.4387L22.6131 30.1168C19.9238 31.3668 16.6284 30.9122 14.4125 28.6774C11.5717 25.8366 11.5717 21.2344 14.4125 18.3936C17.2534 15.5527 21.8555 15.5527 24.6964 18.3936C25.6623 19.3595 26.2683 20.5337 26.5903 21.7647C26.9501 21.0261 27.3478 20.3254 27.8023 19.7004C28.2569 19.0564 28.8061 18.4504 29.3932 17.9012L27.897 14.5679C27.8023 14.3596 27.8023 14.1323 27.897 13.924C27.9728 13.7157 28.1433 13.5452 28.3516 13.4505L33.9954 10.9316L30.1318 7.06811L26.5334 10.6665C24.488 9.56805 22.2532 8.98094 19.9995 8.92412L18.6738 4L10.5679 6.17798L11.8936 11.1021C10.9467 11.6892 10.0376 12.371 9.20432 13.2043C8.37101 14.0376 7.68921 14.9278 7.1021 15.8936L2.17798 14.5679L0 22.6738L4.92412 23.9995C4.98094 26.2532 5.56805 28.507 6.6665 30.5334L3.06811 34.1318L8.99599 40.0597L12.5944 36.4613C14.6398 37.5598 16.8746 38.1469 19.1283 38.2037L20.454 43.1278L28.4463 40.9877L25.6812 38.9802C25.3024 38.6961 25.2077 38.1658 25.4918 37.787Z" fill="#424143"/>
<path d="M50.3397 25.9691C49.9609 25.9313 49.6579 25.6472 49.6011 25.2873C49.2791 23.526 48.5405 21.8783 47.461 20.4768C47.2337 20.1738 47.2337 19.7572 47.461 19.4541L49.4685 16.6891L45.1693 13.5641L43.1618 16.3292C42.9345 16.6322 42.5558 16.7648 42.1959 16.6322C40.5293 16.0451 38.7301 15.8747 36.9498 16.102C36.5711 16.1588 36.2112 15.9504 36.0597 15.6095L34.6582 12.4846L29.8099 14.6437L31.2113 17.7686C31.3629 18.1095 31.2682 18.5072 30.9841 18.7534C30.2833 19.3594 29.6773 20.0034 29.1849 20.7041C28.6925 21.3859 28.2569 22.1813 27.897 23.0147C27.7455 23.3556 27.4046 23.5639 27.0258 23.526L23.6358 23.1662L23.0865 28.4501L26.4766 28.81C26.8554 28.8479 27.1584 29.1319 27.2152 29.4918C27.5372 31.2531 28.2948 32.9008 29.3553 34.3023C29.5826 34.6053 29.5826 35.0219 29.3553 35.325L27.3478 38.09L31.6469 41.215L33.6545 38.4499C33.8817 38.1469 34.2605 38.0332 34.6204 38.1469C36.287 38.734 38.0862 38.9234 39.8664 38.6772C39.9043 38.6772 39.9422 38.6772 39.9801 38.6772C40.321 38.6772 40.624 38.8665 40.7566 39.1885L42.1391 42.3134L46.9875 40.1544L45.586 37.0295C45.4345 36.6886 45.5292 36.2909 45.8133 36.0446C46.514 35.4386 47.12 34.7947 47.6125 34.0939C48.1049 33.3932 48.5405 32.6167 48.9003 31.7834C49.0518 31.4425 49.3927 31.2342 49.7715 31.272L53.1616 31.6319L53.7108 26.3479L50.3207 25.9881L50.3397 25.9691ZM42.7073 31.7076C40.3399 34.075 36.4764 34.075 34.109 31.7076C31.7416 29.3403 31.7416 25.4767 34.109 23.1094C36.4764 20.742 40.3399 20.742 42.7073 23.1094C45.0746 25.4767 45.0746 29.3403 42.7073 31.7076Z" fill="#90C42A"/>
</g>
<defs>
<clipPath id="clip0_2171_6651">
<rect width="53.7487" height="39.1089" fill="white" transform="translate(0 4)"/>
</clipPath>
</defs>
</svg>
