<svg width="173" height="47" viewBox="0 0 173 47" fill="none" xmlns="http://www.w3.org/2000/svg">
  <g clip-path="url(#clip0_2102_4414)">
    <path d="M12.3689 26.9273H-9.15527e-05V27.1079C-9.15527e-05 27.2283 0.0149559 27.3336 0.0300033 27.454C0.0300033 27.4991 0.0300033 27.5593 0.0300033 27.6044C0.0300033 27.7399 0.0450507 27.8753 0.0600981 28.0107C0.0600981 28.0408 0.0600981 28.0709 0.0600981 28.101C0.0600981 28.2515 0.0901929 28.402 0.10524 28.5524C0.10524 28.5675 0.10524 28.5825 0.10524 28.5976C0.120288 28.7631 0.150383 28.9136 0.16543 29.0791C0.300857 30.0722 0.526568 31.0353 0.797421 31.9983C0.842563 32.1488 0.887706 32.2992 0.932848 32.4497C0.932848 32.4497 0.932848 32.4648 0.932848 32.4798C0.932848 32.4949 0.932848 32.4949 0.932848 32.5099C0.97799 32.6453 1.02313 32.7808 1.06827 32.9162C1.06827 32.9463 1.09837 32.9914 1.09837 33.0215L1.21875 33.3676C1.21875 33.3676 1.26389 33.4729 1.27894 33.5181C1.30903 33.6084 1.35418 33.7137 1.38427 33.804C1.41437 33.8792 1.44446 33.9545 1.47455 34.0146C1.50465 34.0899 1.53474 34.1651 1.56484 34.2404C1.60998 34.3306 1.64008 34.4209 1.68522 34.5112C1.71531 34.5714 1.73036 34.6165 1.76046 34.6767C1.8056 34.7821 1.86579 34.8874 1.91093 35.0078C1.92598 35.0379 1.94102 35.083 1.95607 35.1131C2.01626 35.2335 2.07645 35.3689 2.13664 35.4893L2.16674 35.5495C2.24197 35.6849 2.31721 35.8203 2.3774 35.9558C2.3774 35.9558 2.3774 35.9558 2.3774 35.9708C2.3774 36.0009 2.40749 36.031 2.42254 36.0611L12.9858 29.696L13.0159 29.6659C12.6096 28.7932 12.3388 27.8603 12.2485 26.8972L12.3689 26.9273Z" fill="#90C42A"/>
    <path d="M15.4084 32.6002L15.3783 32.6303L6.66589 41.3427C6.66589 41.3427 6.75618 41.433 6.80132 41.4631C6.87656 41.5383 6.96684 41.6136 7.04208 41.6888L7.16246 41.7941C7.26779 41.8844 7.35807 41.9597 7.46341 42.0499L7.53864 42.1252C7.64398 42.2155 7.76435 42.3057 7.88473 42.396L7.92988 42.4261C8.05026 42.5164 8.18568 42.6217 8.30606 42.712C8.83272 43.1033 9.37443 43.4644 9.93118 43.8105C9.94623 43.8105 9.97632 43.8406 9.99137 43.8406C10.0967 43.9008 10.202 43.961 10.3074 44.0362C10.3676 44.0663 10.4428 44.1114 10.503 44.1415C10.5632 44.1716 10.6234 44.2168 10.6836 44.2469C10.7889 44.307 10.9093 44.3672 11.0296 44.4274C11.0447 44.4274 11.0597 44.4425 11.0748 44.4575C11.3908 44.623 11.7218 44.7735 12.0378 44.924L12.3538 44.1716L16.7326 33.5331V33.488C16.2661 33.2322 15.7997 32.9312 15.3783 32.5701L15.4084 32.6002Z" fill="#4D5931"/>
    <path d="M14.5056 31.7424C14.4153 31.6371 14.3251 31.5318 14.2348 31.4264C14.1595 31.3362 14.0843 31.2308 14.0091 31.1405C13.9338 31.0352 13.8435 30.9148 13.7683 30.7945C13.6931 30.6741 13.6178 30.5687 13.5426 30.4484L2.96426 36.8134C3.12979 37.0843 3.29531 37.3401 3.46083 37.6109C3.46083 37.6109 3.46083 37.626 3.47588 37.641C3.47588 37.641 3.47588 37.6561 3.49092 37.6711L3.53607 37.7313C3.71663 38.0022 3.91225 38.273 4.10787 38.5288C4.10787 38.5288 4.10787 38.5288 4.10787 38.5439C4.10787 38.5439 4.10787 38.5439 4.10787 38.5589C4.19815 38.6642 4.27339 38.7846 4.36367 38.89C4.36367 38.905 4.37872 38.92 4.39377 38.9351C4.48405 39.0555 4.57434 39.1608 4.66462 39.2812C4.69472 39.3113 4.70976 39.3263 4.73986 39.3564C4.81509 39.4618 4.90538 39.552 4.99566 39.6574L5.101 39.7778L5.31166 40.0185C5.31166 40.0185 5.40194 40.1088 5.43204 40.1539C5.44709 40.169 5.46213 40.1991 5.49223 40.2141C5.55242 40.2743 5.59756 40.3345 5.65775 40.3947C5.6728 40.4248 5.70289 40.4398 5.73299 40.4699C5.82327 40.5753 5.9286 40.6655 6.01889 40.7709L14.7464 32.0434C14.641 31.9381 14.5508 31.8478 14.4605 31.7424H14.5056Z" fill="#699E3B"/>
    <path d="M26.0771 32.6001C25.9868 32.6754 25.8815 32.7506 25.7912 32.8258V32.8559L32.1713 43.4042C32.4722 43.2086 32.7581 43.0129 33.044 42.8023C33.661 42.3509 34.2629 41.8543 34.8347 41.3276L26.1222 32.6152L26.0921 32.5851L26.0771 32.6001Z" fill="#4D5931"/>
    <path d="M31.2383 43.5095L31.0276 43.1484L25.0839 33.2923C24.9635 33.3676 24.8431 33.4278 24.7228 33.503C24.6024 33.5632 24.467 33.6384 24.3466 33.6836C23.218 34.2253 21.9841 34.4961 20.7352 34.4961C19.9226 34.4961 19.1101 34.3758 18.3276 34.15C18.1922 34.1049 18.0718 34.0598 17.9364 34.0146C17.801 33.9695 17.6655 33.9243 17.5452 33.8792L13.1664 44.5027L13.0008 44.924L12.8504 45.2851H12.8805H12.9106C13.0159 45.3303 13.1212 45.3604 13.2266 45.4055C13.362 45.4506 13.4824 45.5108 13.6178 45.556C13.693 45.5861 13.7532 45.6162 13.8134 45.6312C15.1827 46.1127 16.5972 46.4588 18.0417 46.6394H18.2072L18.3878 46.6845C18.4931 46.6845 18.6135 46.7146 18.7189 46.7146H18.8091C18.9446 46.7297 19.08 46.7447 19.2154 46.7598C19.2606 46.7598 19.3057 46.7598 19.3508 46.7598C19.4712 46.7598 19.5916 46.7598 19.712 46.7748C19.7872 46.7748 19.8625 46.7748 19.9377 46.7748C20.028 46.7748 20.1333 46.7748 20.2236 46.7748C20.359 46.7748 20.4945 46.7748 20.6299 46.7748H20.7202C21.8788 46.7748 23.0224 46.6845 24.166 46.4889C24.1811 46.4889 24.1961 46.4889 24.2262 46.4889C24.3466 46.4739 24.467 46.4438 24.5873 46.4287C24.6626 46.4287 24.7228 46.3986 24.798 46.3836C24.8732 46.3836 24.9485 46.3535 25.0087 46.3384C25.129 46.3083 25.2494 46.2933 25.3548 46.2632H25.4149C27.1454 45.8419 28.8157 45.2249 30.3956 44.3973C30.501 44.3371 30.6063 44.2769 30.6966 44.2318C30.817 44.1566 30.9373 44.0964 31.0577 44.0211C31.148 43.976 31.2232 43.9309 31.3135 43.8857L31.2985 43.8556V43.8857H31.3135C31.3436 43.8707 31.3737 43.8556 31.3888 43.8406L31.1781 43.4794L31.2383 43.5095ZM15.4235 19.5992C15.5138 19.524 15.6191 19.4487 15.7094 19.3735V19.3434L9.32928 8.79517C9.02833 8.99078 8.74243 9.1864 8.45653 9.39706C7.83959 9.84848 7.23769 10.345 6.66589 10.8717L15.3783 19.5842L15.4084 19.6143L15.4235 19.5992Z" fill="#90C42A"/>
    <path d="M6.06401 11.4285C5.95868 11.5338 5.86839 11.6241 5.77811 11.7295C5.68782 11.8348 5.58249 11.9251 5.49221 12.0304C4.86022 12.7226 4.27337 13.4449 3.73166 14.2123C3.70157 14.2424 3.68652 14.2875 3.65643 14.3176C3.59624 14.4079 3.53605 14.4982 3.47586 14.5734C3.41567 14.6637 3.35548 14.754 3.29529 14.8443C3.26519 14.8744 3.25015 14.9045 3.2351 14.9496C1.21875 18.0945 0.150382 21.6607 -9.15527e-05 25.2571C-9.15527e-05 25.3925 -9.15527e-05 25.543 -9.15527e-05 25.6784C-9.15527e-05 25.8138 -9.15527e-05 25.9643 -9.15527e-05 26.0997H12.3388C12.3388 25.9643 12.3388 25.8138 12.3538 25.6784C12.3538 25.543 12.3538 25.3925 12.3839 25.2571C12.5494 23.647 13.1664 22.0821 14.2498 20.7579C14.3401 20.6526 14.4304 20.5472 14.5357 20.4419C14.641 20.3366 14.7163 20.2312 14.8216 20.1259L6.0941 11.3984L6.06401 11.4285ZM31.5242 8.37389C31.5242 8.37389 31.4941 8.35884 31.4791 8.34379C31.3737 8.26855 31.2684 8.20836 31.148 8.14817C31.0878 8.11808 31.0276 8.07294 30.9524 8.04284C30.8922 8.01275 30.817 7.96761 30.7568 7.93751C30.6515 7.87732 30.5311 7.81713 30.4257 7.75694C30.4107 7.75694 30.3956 7.74189 30.3656 7.72685C29.6433 7.35066 28.906 7.01962 28.1385 6.71867C28.1235 6.71867 28.0934 6.71867 28.0783 6.70362C27.9128 6.64343 27.7473 6.58324 27.5818 6.52305C26.2275 6.05658 24.8432 5.72554 23.4287 5.54497C23.3685 5.54497 23.3083 5.52993 23.2481 5.51488H23.0676C22.9622 5.48478 22.8419 5.46974 22.7365 5.45469C22.7064 5.45469 22.6763 5.45469 22.6462 5.45469C22.5108 5.45469 22.3754 5.42459 22.255 5.42459C22.2099 5.42459 22.1497 5.42459 22.1045 5.42459C21.9842 5.42459 21.8788 5.40955 21.7584 5.40955H21.5779V17.7635C22.2099 17.8237 22.8419 17.9591 23.4438 18.1697L32.5474 9.06607C32.2164 8.82531 31.8703 8.5996 31.5092 8.38893L31.5242 8.37389Z" fill="#4D5931"/>
    <path d="M20.3289 5.34937C20.1935 5.34937 20.043 5.34937 19.9076 5.34937C19.0349 5.37946 18.1621 5.46974 17.3044 5.62022C17.2894 5.62022 17.2743 5.62022 17.2442 5.62022C17.1238 5.63527 17.0035 5.66536 16.8831 5.68041C16.8079 5.68041 16.7477 5.7105 16.6724 5.72555C16.5972 5.72555 16.537 5.75565 16.4618 5.77069C16.3414 5.80079 16.221 5.81584 16.1157 5.84593C16.0856 5.84593 16.0705 5.84593 16.0555 5.84593C14.325 6.25221 12.6548 6.86915 11.0748 7.69676C10.9695 7.75695 10.8792 7.81714 10.7738 7.86228C10.6535 7.93752 10.5331 7.99771 10.4127 8.07295C10.3224 8.11809 10.2321 8.17828 10.1419 8.22342C10.1419 8.22342 10.1419 8.22342 10.1268 8.22342C10.0967 8.22342 10.0817 8.25352 10.0516 8.26857L10.2622 8.6297L16.4166 18.8469C16.537 18.7717 16.6574 18.7115 16.7778 18.6362C16.8981 18.561 17.0336 18.5008 17.1539 18.4406C18.0267 18.0193 18.9747 17.7635 19.9227 17.6732C20.0581 17.6732 20.2086 17.6431 20.344 17.6431C20.4794 17.6431 20.6299 17.6431 20.7653 17.6431V5.34937C20.6299 5.34937 20.4794 5.34937 20.344 5.34937H20.3289Z" fill="#699E3B"/>
    <path d="M41.4856 25.0765V24.7455C41.4856 24.7455 41.4555 24.6401 41.4555 24.58C41.4555 24.4445 41.4405 24.3242 41.4254 24.1887C41.4254 24.1586 41.4254 24.1135 41.4254 24.0834C41.4254 23.9329 41.3953 23.7975 41.3803 23.647V23.6169C41.3803 23.6169 41.3803 23.6169 41.3803 23.6019C41.3652 23.4514 41.3351 23.2859 41.3201 23.1354C41.1696 22.1573 40.9589 21.1792 40.6881 20.2162C40.6881 20.2162 40.6881 20.2162 40.6881 20.2012C40.643 20.0507 40.5978 19.9002 40.5527 19.7497C40.5527 19.7347 40.5527 19.7196 40.5376 19.6895C40.4925 19.5541 40.4473 19.4187 40.4022 19.2983C40.4022 19.2682 40.3721 19.2231 40.3721 19.193C40.327 19.0726 40.2969 18.9673 40.2517 18.8469L40.1915 18.6814C40.1614 18.5911 40.1163 18.4858 40.0862 18.3955L39.9959 18.1698L39.9056 17.9591C39.8605 17.8688 39.8304 17.7785 39.7853 17.6732C39.7552 17.613 39.7401 17.5679 39.71 17.5077C39.6649 17.4023 39.6047 17.282 39.5595 17.1766C39.5445 17.1465 39.5294 17.1014 39.5144 17.0713C39.4542 16.9509 39.394 16.8155 39.3338 16.6951C39.3338 16.6801 39.3188 16.665 39.3037 16.65C39.2285 16.5145 39.1533 16.3791 39.0931 16.2286C38.7319 15.5666 38.3407 14.9346 37.9194 14.3176L28.8157 23.4213C29.0264 24.0382 29.1618 24.6552 29.222 25.2872H41.5909V25.1066L41.4856 25.0765Z" fill="#4D5931"/>
    <path d="M29.1618 26.0997C29.1618 26.2352 29.1618 26.3856 29.1467 26.5211C29.1467 26.6565 29.1467 26.807 29.1166 26.9424C28.9511 28.5976 28.3041 30.1475 27.2508 31.4416C27.1605 31.5469 27.0702 31.6522 26.9649 31.7576C26.8595 31.8629 26.7843 31.9682 26.679 32.0736L35.4065 40.8011C35.5118 40.6957 35.6021 40.6054 35.6924 40.5001C35.7826 40.3948 35.888 40.3045 35.9783 40.1992C36.6102 39.507 37.2121 38.7847 37.7388 38.0022C37.7689 37.9721 37.7839 37.942 37.799 37.9119C37.8592 37.8217 37.9194 37.7314 37.9946 37.626C38.0548 37.5358 38.0999 37.4605 38.1601 37.3702C38.1902 37.3251 38.2203 37.28 38.2354 37.2499C40.2367 34.105 41.305 30.5538 41.4555 26.9574C41.4555 26.822 41.4555 26.6715 41.4555 26.5361C41.4555 26.4007 41.4555 26.2653 41.4555 26.1148H29.1166L29.1618 26.0997Z" fill="#699E3B"/>
    <path d="M45.1723 1.69283C42.9151 -0.564278 39.2586 -0.564278 37.0015 1.69283C35.1958 3.48348 34.8347 6.17696 35.9181 8.34379L23.3234 20.9234C21.1566 19.8551 18.4631 20.2162 16.6724 22.0068C14.4153 24.2639 14.4153 27.9205 16.6724 30.1776C18.9296 32.4347 22.5861 32.4347 24.8432 30.1776C26.6489 28.3719 27.01 25.6784 25.9266 23.5266L38.5213 10.947C40.6881 12.0154 43.3666 11.6542 45.1723 9.86358C47.4294 7.60647 47.4294 3.94995 45.1723 1.69283ZM47.8507 21.6307C47.8507 15.4462 52.38 11.0222 58.5945 11.0222C64.8091 11.0222 69.3083 15.4462 69.3083 21.6307C69.3083 27.8151 64.779 32.2391 58.5945 32.2391C52.4101 32.2391 47.8507 27.8151 47.8507 21.6307ZM64.8091 21.6307C64.8091 17.7785 62.3714 14.8894 58.5945 14.8894C54.8176 14.8894 52.3499 17.7785 52.3499 21.6307C52.3499 25.4828 54.7875 28.3719 58.5945 28.3719C62.4015 28.3719 64.8091 25.4527 64.8091 21.6307ZM71.6106 11.3533H81.2108C85.6799 11.3533 88.1025 14.3628 88.1025 17.9591C88.1025 21.5554 85.6347 24.5348 81.2108 24.5348H75.9743V31.8629H71.6106V11.3533ZM83.6485 17.9591C83.6485 16.2286 82.3243 15.1904 80.5939 15.1904H75.9743V20.6977H80.5939C82.3243 20.6977 83.6485 19.6594 83.6485 17.9591ZM90.0737 31.8629V11.3533H104.594V15.2054H94.4375V19.509H104.384V23.3611H94.4375V28.0409H104.594V31.893H90.0737V31.8629ZM121.402 31.8629L111.622 18.4857V31.8629H107.243V11.3533H111.742L121.252 24.2489V11.3533H125.616V31.8779H121.402V31.8629ZM144.049 31.8629L142.755 28.3869H133.952L132.658 31.8629H127.707L135.622 11.3382H141.1L149.014 31.8629H144.064H144.049ZM138.361 15.717L135.156 24.5499H141.551L138.346 15.717H138.361ZM150.143 11.3533H159.743C164.212 11.3533 166.635 14.3628 166.635 17.9591C166.635 21.5554 164.167 24.5348 159.743 24.5348H154.507V31.8629H150.143V11.3533ZM162.181 17.9591C162.181 16.2286 160.857 15.1904 159.126 15.1904H154.507V20.6977H159.126C160.857 20.6977 162.181 19.6594 162.181 17.9591ZM168.606 31.8629V11.3533H172.985V31.8779H168.606V31.8629Z" fill="#424143"/>
    <path d="M136.841 40.3045C136.841 42.8625 135.396 44.2168 133.636 44.2168C131.875 44.2168 130.536 42.682 130.536 40.4399C130.536 38.1978 131.89 36.5276 133.726 36.5276C135.562 36.5276 136.826 38.0775 136.826 40.2894L136.841 40.3045ZM131.484 40.4249C131.484 42.0199 132.282 43.4494 133.696 43.4494C135.111 43.4494 135.908 42.05 135.908 40.3496C135.908 38.875 135.186 37.3251 133.711 37.3251C132.237 37.3251 131.499 38.7997 131.499 40.4249H131.484Z" fill="#90C42A"/>
    <path d="M140.392 41.7641L139.685 44.0964H138.767L141.114 36.6479H142.183L144.53 44.0964H143.582L142.845 41.7641H140.407H140.392ZM142.664 41.0117L141.987 38.875C141.837 38.3934 141.731 37.942 141.626 37.5207H141.596C141.491 37.9571 141.385 38.4085 141.25 38.8599L140.573 41.0117H142.649H142.664Z" fill="#90C42A"/>
    <path d="M146.848 42.9227C147.254 43.1936 147.826 43.4042 148.443 43.4042C149.36 43.4042 149.887 42.8926 149.887 42.1402C149.887 41.4481 149.511 41.0418 148.578 40.6656C147.449 40.2292 146.757 39.5972 146.757 38.559C146.757 37.4003 147.645 36.5426 148.999 36.5426C149.707 36.5426 150.218 36.7232 150.519 36.9037L150.263 37.6862C150.038 37.5508 149.586 37.3401 148.969 37.3401C148.021 37.3401 147.66 37.942 147.66 38.4536C147.66 39.1458 148.081 39.4919 149.029 39.8831C150.203 40.3797 150.79 40.9816 150.79 42.08C150.79 43.1785 150.007 44.2318 148.382 44.2318C147.72 44.2318 146.983 44.0212 146.622 43.7503L146.863 42.9528L146.848 42.9227Z" fill="#90C42A"/>
    <path d="M157.411 42.9981C157.682 43.1636 158.329 43.4495 159.006 43.4495C160.24 43.4495 160.631 42.667 160.631 42.0651C160.631 41.0569 159.713 40.6356 158.78 40.6356H158.238V39.9133H158.78C159.487 39.9133 160.375 39.5522 160.375 38.7095C160.375 38.1377 160.014 37.6261 159.111 37.6261C158.539 37.6261 157.983 37.8819 157.682 38.0926L157.426 37.3854C157.802 37.0995 158.539 36.8286 159.307 36.8286C160.721 36.8286 161.368 37.6713 161.368 38.544C161.368 39.2813 160.917 39.9133 160.044 40.2293C160.932 40.4249 161.639 41.087 161.639 42.0952C161.639 43.2388 160.736 44.247 159.021 44.247C158.208 44.247 157.516 43.9912 157.155 43.7504L157.411 43.0131V42.9981Z" fill="#90C42A"/>
    <path d="M164.468 43.5246C164.468 43.1183 164.739 42.8174 165.13 42.8174C165.521 42.8174 165.777 43.1033 165.777 43.5246C165.777 43.9158 165.521 44.2168 165.115 44.2168C164.709 44.2168 164.453 43.9158 164.468 43.5246Z" fill="#90C42A"/>
    <path d="M172.985 40.4399C172.985 42.8776 172.067 44.2168 170.487 44.2168C169.088 44.2168 168.14 42.9077 168.109 40.5302C168.109 38.1226 169.148 36.7985 170.607 36.7985C172.067 36.7985 172.985 38.1527 172.985 40.4399ZM169.088 40.5453C169.088 42.4111 169.659 43.4795 170.547 43.4795C171.54 43.4795 172.007 42.3209 172.007 40.5001C172.007 38.6794 171.555 37.5809 170.547 37.5809C169.704 37.5809 169.088 38.6192 169.088 40.5603V40.5453Z" fill="#90C42A"/>
  </g>
  <defs>
    <clipPath id="clip0_2102_4414">
      <rect width="173" height="47" fill="white"/>
    </clipPath>
  </defs>
</svg>
